<?xml version="1.0" encoding="utf-8"?>
<?xml-stylesheet type="text/xsl" href="rss1.xsl"?>
<rss version="2.0" xmlns:atom="http://www.w3.org/2005/Atom" xmlns:content="http://purl.org/rss/1.0/modules/content/" xmlns:dc="http://purl.org/dc/elements/1.1/" xmlns:media="http://search.yahoo.com/mrss/">
<channel>
 <title>Getty</title>
 <link>http://www.gettyimg.com/</link>
 <atom:link href="http://www.gettyimg.com/" rel="self" type="application/rss+xml" />

 
                <item>
                <title><![CDATA[【BLU-RAY &amp; BD RIP】YOASOBI - Yuusha [Frieren: Beyond Journey's End NCOP - BD RIP]]]></title>
                <link><![CDATA[https://sharemania.us/threads/yoasobi-yuusha-frieren-beyond-journeys-end-ncop-bd-rip.242250/]]></link>
                <description><![CDATA[<article>
<blockquote class="messageText SelectQuoteContainer ugc baseHtml">
<span style="font-size: 22px"><b>YOASOBI - Yuusha [Frieren: Beyond Journey's End NCOP - BD RIP]</b></span><br>
<br>
<img src="https://imgur.com/H929zYg.jpg" class="bbCodeImage LbImage" alt="[​IMG]" data-url="https://imgur.com/H929zYg.jpg" style=""><br>
<br>
<div class="bbCodeBlock bbCodeCode">
<div class="type">Code:</div>
<pre>General
Format                         : Matroska
Format version                 : Version 4
File size                      : 179 MiB
Duration                       : 1 min 31 s
Overall bit rate mode          : Variable
Overall bit rate               : 16.5 Mb/s
Encoded date                   : UTC 2024-01-31 23:04:52
Writing application            : mkvmerge v82.0 ('I'm The President') 64-bit
Writing library                : libebml v1.4.5 + libmatroska v1.7.1

Video
ID                             : 1
Format                         : HEVC
Format/Info                    : High Efficiency Video Coding
Format profile                 : Main 10@L4@Main
Codec ID                       : V_MPEGH/ISO/HEVC
Duration                       : 1 min 31 s
Bit rate                       : 14.8 Mb/s
Width                          : 1 920 pixels
Height                         : 1 080 pixels
Display aspect ratio           : 16:9
Frame rate mode                : Constant
Frame rate                     : 23.976 (24000/1001) FPS
Color space                    : YUV
Chroma subsampling             : 4:2:0
Bit depth                      : 10 bits
Bits/(Pixel*Frame)             : 0.298
Stream size                    : 161 MiB (90%)
Title                          : BDrip
Writing library                : x265 3.5+131-c5c0aa6fd:[DJATOM's Mod][Windows][GCC 13.1.0][64 bit] 10bit
Encoding settings              : cpuid=1049583 / frame-threads=16 / numa-pools=24,24 / wpp / no-pmode / no-pme / no-psnr / no-ssim / log-level=2 / csv / csv-log-level=0 / input-csp=1 / input-res=1920x1080 / interlace=0 / total-frames=2184 / level-idc=0 / high-tier=1 / uhd-bd=0 / ref=4 / no-allow-non-conformance / no-repeat-headers / annexb / no-aud / no-eob / no-eos / no-hrd / info / hash=0 / temporal-layers=0 / open-gop / min-keyint=23 / keyint=240 / gop-lookahead=0 / bframes=6 / b-adapt=2 / b-pyramid / bframe-bias=0 / rc-lookahead=240 / lookahead-slices=0 / scenecut=40 / no-hist-scenecut / radl=0 / no-splice / no-intra-refresh / ctu=64 / min-cu-size=8 / rect / amp / max-tu-size=32 / tu-inter-depth=2 / tu-intra-depth=3 / limit-tu=0 / rdoq-level=2 / dynamic-rd=0.00 / no-ssim-rd / signhide / tskip / nr-intra=0 / nr-inter=0 / no-constrained-intra / strong-intra-smoothing / max-merge=5 / limit-refs=2 / limit-modes / me=3 / subme=7 / merange=57 / temporal-mvp / no-frame-dup / no-hme / weightp / weightb / analyze-src-pics / deblock=1:-1 / sao / sao-non-deblock / rd=5 / selective-sao=2 / early-skip / rskip / no-fast-intra / tskip-fast / no-cu-lossless / b-intra / splitrd-skip / rdpenalty=1 / psy-rd=1.60 / psy-rdoq=2.40 / no-rd-refine / no-lossless / cbqpoffs=-2 / crqpoffs=-2 / rc=crf / crf=16.0 / qcomp=0.71 / qpstep=4 / stats-write=0 / stats-read=0 / ipratio=1.40 / pbratio=1.30 / aq-mode=3 / aq-strength=1.02 / aq-bias-strength=1.00 / cutree / zone-count=0 / no-strict-cbr / qg-size=32 / no-rc-grain / qpmax=69 / qpmin=0 / no-const-vbv / sar=0 / overscan=0 / videoformat=5 / range=0 / colorprim=1 / transfer=1 / colormatrix=1 / chromaloc=0 / display-window=0 / cll=0,0 / min-luma=0 / max-luma=1023 / log2-max-poc-lsb=8 / vui-timing-info / vui-hrd-info / slices=1 / no-opt-qp-pps / no-opt-ref-list-length-pps / no-multi-pass-opt-rps / scenecut-bias=0.05 / no-opt-cu-delta-qp / no-aq-motion / no-hdr10 / no-hdr10-opt / no-dhdr10-opt / no-idr-recovery-sei / analysis-reuse-level=0 / analysis-save-reuse-level=0 / analysis-load-reuse-level=0 / scale-factor=0 / refine-intra=4 / refine-inter=0 / refine-mv=3 / refine-ctu-distortion=0 / limit-sao / ctu-info=0 / no-lowpass-dct / refine-analysis-type=0 / copy-pic=1 / max-ausize-factor=1.0 / dynamic-refine / no-single-sei / no-hevc-aq / no-svt / no-field / qp-adaptation-range=4.00 / scenecut-aware-qp=0conformance-window-offsets / right=0 / bottom=0 / decoder-max-rate=0 / no-vbv-live-multi-pass / no-mcstf / no-sbrc
Language                       : Japanese
Default                        : Yes
Forced                         : No
Color range                    : Limited
Color primaries                : BT.709
Transfer characteristics       : BT.709
Matrix coefficients            : BT.709

Audio
ID                             : 2
Format                         : MLP FBA
Format/Info                    : Meridian Lossless Packing FBA
Commercial name                : Dolby TrueHD
Codec ID                       : A_TRUEHD
Duration                       : 1 min 31 s
Bit rate mode                  : Variable
Bit rate                       : 1 625 kb/s
Maximum bit rate               : 1 812 kb/s
Channel(s)                     : 2 channels
Channel layout                 : L R
Sampling rate                  : 48.0 kHz
Frame rate                     : 1 200.000 FPS (40 SPF)
Compression mode               : Lossless
Stream size                    : 17.7 MiB (10%)
Language                       : Japanese
Default                        : Yes
Forced                         : No
</pre>
</div>
<div class="bbCodeBlock bbCodeVfcHH HiddenContent">
<div class="attribution type">Hidden Content:</div>
<blockquote>You must reply before you can see the hidden data contained here.</blockquote>
</div>
<div class="messageTextEndMarker">&nbsp;</div>
</blockquote>
</article>]]></description>
                <author><![CDATA[abby0511]]></author>
                </item>

                </channel></rss>